<svg width="17" height="17" viewBox="0 0 17 17" fill="none" xmlns="http://www.w3.org/2000/svg">
<path d="M5.36175 0.777466C2.82086 0.777466 0.73291 2.86256 0.73291 5.40631V11.8906C0.73291 14.4314 2.818 16.5194 5.36175 16.5194H11.846C14.3869 16.5194 16.4748 14.4343 16.4748 11.8906V5.40703C16.4748 2.86542 14.3898 0.777466 11.846 0.777466H5.36175ZM5.36175 2.20855H11.846C12.2661 2.20799 12.6822 2.29031 13.0704 2.45081C13.4586 2.61132 13.8114 2.84684 14.1084 3.14389C14.4055 3.44094 14.641 3.79369 14.8015 4.18191C14.962 4.57014 15.0443 4.98622 15.0438 5.40631V11.8906C15.0443 12.3107 14.962 12.7267 14.8015 13.115C14.641 13.5032 14.4055 13.8559 14.1084 14.153C13.8114 14.45 13.4586 14.6856 13.0704 14.8461C12.6822 15.0066 12.2661 15.0889 11.846 15.0883H5.36247C4.94232 15.089 4.52616 15.0067 4.13785 14.8463C3.74955 14.6858 3.39672 14.4503 3.09959 14.1532C2.80246 13.8562 2.56687 13.5034 2.40633 13.1151C2.24578 12.7268 2.16343 12.3107 2.164 11.8906V5.40703C2.16334 4.98687 2.24559 4.57072 2.40605 4.18241C2.56651 3.7941 2.80202 3.44127 3.09908 3.14415C3.39614 2.84702 3.74892 2.61143 4.13719 2.45088C4.52546 2.29034 4.9416 2.20799 5.36175 2.20855ZM12.8299 3.77416C12.7446 3.77378 12.6602 3.79029 12.5813 3.82273C12.5025 3.85518 12.4309 3.90292 12.3706 3.96319C12.3103 4.02346 12.2626 4.09508 12.2302 4.17391C12.1977 4.25273 12.1812 4.3372 12.1816 4.42244C12.1816 4.78307 12.4692 5.07072 12.8299 5.07072C12.9152 5.07119 12.9997 5.05475 13.0786 5.02235C13.1575 4.98995 13.2292 4.94223 13.2896 4.88194C13.3499 4.82166 13.3977 4.75001 13.4302 4.67114C13.4627 4.59227 13.4792 4.50774 13.4789 4.42244C13.4792 4.33714 13.4627 4.25261 13.4302 4.17374C13.3977 4.09487 13.3499 4.02322 13.2896 3.96294C13.2292 3.90265 13.1575 3.85493 13.0786 3.82253C12.9997 3.79012 12.9152 3.77368 12.8299 3.77416ZM8.60388 4.35518C6.24259 4.35518 4.31062 6.28714 4.31062 8.64843C4.31062 11.0097 6.24259 12.9417 8.60388 12.9417C10.9652 12.9417 12.8971 11.0097 12.8971 8.64843C12.8971 6.28714 10.9652 4.35518 8.60388 4.35518ZM8.60388 5.78626C10.1945 5.78626 11.466 7.05778 11.466 8.64843C11.466 10.2391 10.1945 11.5106 8.60388 11.5106C7.01323 11.5106 5.74171 10.2391 5.74171 8.64843C5.74171 7.05778 7.01323 5.78626 8.60388 5.78626Z" fill="white"/>
</svg>
